<svg xmlns="http://www.w3.org/2000/svg" width="28" height="33"><path d="M18.96 14.19a1.257 1.257 0 00.52.24l.68 2.89L22 14.7l-.38-.22-.07-.04c.35-.86.62-1.75.36-2.11-.32-.44-1.61-1.77-1.71-1.87a.9.9 0 00-1.43.17 7.471 7.471 0 00-.45.63 2.221 2.221 0 00.64 2.93zM4.25 32.32c-.55-1.11.31-2.91.34-2.91.09.02.24.05.24.05l.15.41a.44.44 0 01.09.01c2.56.48 5.45.36 6.01-.04a11.794 11.794 0 003.15-4.77s2.61-1.52 4.67-1.29c1.51.17 2.12 1.48 2.12 3.4.09 0 .64.05.64.05a2.15 2.15 0 00-.05.32 2.915 2.915 0 00-.22.43 2.633 2.633 0 001.31 1.93 13.919 13.919 0 005.3-3.18l-1.02-.88a6.341 6.341 0 01-2.84 1.29s.79-5.97-.06-6.77a5.673 5.673 0 00-3.89-1.31l.97 2.71-11.33 2.75S9.19 22.86 9 22.3a8.669 8.669 0 01-1.29 3.98 3.914 3.914 0 01-3.76.86l-1-.25a15.138 15.138 0 00-1.17 1.86A3.01 3.01 0 003.08 33h22.43a11.907 11.907 0 00-1.55-.44c-4.5-1.5-14.63-1.43-19.71-.24zm2.76-11.35c.05 0 2.34-.12 2.94-.67.01 0 1.02-1.74.1-2.41-.29-.23-.71-.15-2.09-.09a4.611 4.611 0 01-1.86-.16l1.1-.82-.92-3.67 9.62-2.21.02-.01a7.032 7.032 0 00-5.81-1.57l-.59-.55a2.622 2.622 0 00.81-.49 13.079 13.079 0 01-1.36-4.97c.67-.19 3.33-.43 3.88-3.35 0 0-1.89 1.3-3.37.56A3.434 3.434 0 005.26 1.6s-1.68.08-1.64 1.08a13.039 13.039 0 002.98 7.73 9.4 9.4 0 00-4.49 3.54A17.167 17.167 0 000 18.75s2 2.38 6.65 2.88a2.547 2.547 0 01.36-.66z" fill="#6b7076" fill-rule="evenodd"/></svg>