<svg opacity=".3" xmlns="http://www.w3.org/2000/svg" viewBox="0 0 40 55"><path fill-rule="evenodd" clip-rule="evenodd" fill="#EBF4FF" d="M30.8 20.1c1 .1 1.8-.7 1.9-1.7s-.7-1.8-1.6-1.9c-1-.1-1.8.7-1.9 1.7-.1 1 .6 1.8 1.6 1.9zm-4.8.5c1.2.1 2.3-1.1 2.4-2.6.1-1.5-.8-2.8-2-2.9-1.2-.1-2.3 1.1-2.4 2.6-.1 1.5.8 2.8 2 2.9zm8.3 1.4c.9.1 1.6-.6 1.7-1.5.1-.9-.6-1.6-1.5-1.7-.9-.1-1.6.6-1.7 1.5 0 .8.7 1.6 1.5 1.7zm2.8 2.2c.8.1 1.4-.5 1.5-1.3.1-.8-.5-1.4-1.3-1.5-.8-.1-1.4.5-1.5 1.3 0 .7.6 1.4 1.3 1.5zm1.8.5c-.7 0-1.2.4-1.3 1.1 0 .7.4 1.2 1.1 1.3.7 0 1.2-.4 1.3-1.1s-.5-1.3-1.1-1.3zm-10.7-2.8s.1 0 0 0zm0 0c-2.2-.2-3.5.9-3.6 2.8-.1 1.5.2 3.1 1.5 4.7 1.7 2 4.6 4.1 4.4 6.8-.1 1.5-.5 4.3-2.7 6.3-2.8 2.5-4.4 4.8-4.6 7.4-.2 2.6 1.4 4.9 4.4 5.1 3 .2 4.9-1.8 5.1-5.2.2-3.4.3-6.6 2.1-9.9 1.7-3.3 2.6-4.8 3.1-5.9.5-1.1.5-1.9.6-2.6.2-2.3-1.4-4.1-2.3-5.1-2.5-2.8-5-4.2-8-4.4zM9.5 4.8c1 0 1.8-.8 1.8-1.8s-.8-1.8-1.8-1.8S7.8 2 7.8 3s.8 1.8 1.7 1.8zM14.3 0c-1.2 0-2.2 1.3-2.2 2.8 0 1.5 1 2.8 2.2 2.8 1.2 0 2.2-1.3 2.2-2.8 0-1.5-1-2.8-2.2-2.8zM5.9 6.4c.9 0 1.6-.7 1.6-1.6s-.7-1.6-1.6-1.6c-.9 0-1.6.7-1.6 1.6 0 .9.7 1.6 1.6 1.6zm-3 2c.8 0 1.4-.6 1.4-1.4 0-.8-.6-1.4-1.4-1.4-.7 0-1.3.6-1.3 1.4 0 .8.6 1.4 1.3 1.4zM2.4 10c0-.7-.5-1.2-1.2-1.2S0 9.3 0 10s.5 1.2 1.2 1.2c.6 0 1.2-.5 1.2-1.2zm11.1 4.4c1.5-1.5 1.9-3 1.9-4.6 0-1.9-1.1-3-3.4-3-3 0-5.6 1.2-8.3 3.8-.9 1-2.6 2.7-2.6 4.9 0 .8 0 1.5.4 2.7.4 1.1 1.1 2.7 2.6 6.1 1.5 3.4 1.4 6.6 1.4 10 0 3.4 1.7 5.6 4.7 5.5 3 0 4.7-2.1 4.7-4.8 0-2.7-1.4-5.1-4.1-7.7-2.1-2.1-2.3-4.9-2.3-6.4.2-2.7 3.2-4.6 5-6.5zm-1.7-7.6c-.2 0-.1 0 0 0zm.2 0h-.2.2z"/></svg>